:SAMPLES-PER-SECOND 30
:FULLY-SPECIFIED
:DEGREES
146
root  -73.3662 41.3304 -7.29394 -1.92923 -87.4341 -2.91336
RightUpLeg  0.187991 -11.0837 -5.76329
RightLeg  10.8916 -4.99653 2.7282
RightFoot  -3.6066 0.0433627 -1.00358
RightToes  -1.74624e-010 0 -3.6325e-017
Spine  4.63208 -0.319291 3.55237
Spine1  7.6884 -0.0339125 -0.517086
HEad  -13.6475 0.789698 -1.8229
LeftShoulder1  9.18896 -12.7489 -49.3584
LeftArm  -10.9071 22.1866 -30.1002
LeftForeArm  27.6906 -12.8621 -4.55911
LeftHand  -0.244104 0.0205437 5.32207
RightShoulder  6.24517 9.60341 41.4219
RightArm  6.50368 -13.9033 34.8057
RightForeArm  -0.833439 25.3339 5.4869
RightHand  -0.655883 0.206733 -13.6607
LeftUpLeg  -6.29381 7.04601 3.36868
LeftLeg  8.98457 5.34062 -1.14995
LeftFoot  1.62301 -0.0750429 0.574107
LeftToes  1.61887e-010 9.40759e-012 5.52375e-011
147
root  -73.781 41.3616 -7.02168 -15.5058 -87.7528 10.6263
RightUpLeg  0.0713012 -13.1783 -6.65233
RightLeg  12.3921 -2.26397 1.90931
RightFoot  -3.92997 -0.0245771 -0.0303945
RightToes  -1.74624e-010 0 -3.6325e-017
Spine  4.3366 -0.016342 3.05288
Spine1  7.85112 0.421649 -1.32031
HEad  -13.6034 0.400366 -1.67332
LeftShoulder1  9.16711 -12.7285 -49.3028
LeftArm  -10.3009 21.7738 -29.508
LeftForeArm  26.3389 -15.1936 -4.26506
LeftHand  -0.244104 0.0205437 5.32207
RightShoulder  6.24313 9.69123 41.1099
RightArm  6.906 -14.8177 35.322
RightForeArm  -1.2617 21.1396 5.18197
RightHand  -0.650138 0.437626 -13.0117
LeftUpLeg  -4.97876 6.87037 3.06189
LeftLeg  8.07239 6.12244 -2.20822
LeftFoot  1.5116 -0.10484 0.850531
LeftToes  1.61887e-010 9.40759e-012 5.52375e-011
148
root  -74.144 41.3613 -6.73267 -25.207 -88.0167 20.4501
RightUpLeg  -1.00401 -15.4086 -7.16801
RightLeg  14.9972 0.663309 1.01108
RightFoot  -3.94281 -0.126334 1.54392
RightToes  -1.74624e-010 0 -3.6325e-017
Spine  4.12473 0.0831978 2.55178
Spine1  7.90129 0.544247 -1.69399
HEad  -13.9895 0.549841 -2.01263
LeftShoulder1  9.12761 -12.6148 -49.4359
LeftArm  -10.0794 21.3997 -28.9372
LeftForeArm  24.9395 -18.0788 -3.83644
LeftHand  -0.244104 0.0205437 5.32207
RightShoulder  6.29905 9.79923 41.1437
RightArm  5.31574 -15.3059 34.8804
RightForeArm  2.84439 17.6611 6.02328
RightHand  -0.581991 0.287289 -11.9641
LeftUpLeg  -4.25921 6.79613 2.89475
LeftLeg  7.89709 6.74079 -3.01797
LeftFoot  0.900509 -0.113131 1.00285
LeftToes  1.61887e-010 9.40759e-012 5.52375e-011
149
root  -74.4342 41.3272 -6.4476 -30.1138 -88.2756 25.6314
RightUpLeg  -3.17296 -15.862 -7.48203
RightLeg  18.9977 1.81301 0.400265
RightFoot  -3.31976 -0.316604 4.1473
RightToes  -1.74624e-010 0 -3.6325e-017
Spine  4.15964 0.0579732 2.09119
Spine1  7.72865 0.459352 -1.76281
HEad  -14.8444 0.871929 -2.44429
LeftShoulder1  9.00779 -12.4357 -49.3339
LeftArm  -10.9972 20.7921 -28.6602
LeftForeArm  24.4126 -20.7018 -3.57877
LeftHand  -0.244104 0.0205437 5.32207
RightShoulder  6.34974 9.80537 41.481
RightArm  3.43727 -15.8624 33.8594
RightForeArm  6.87628 15.8406 6.44995
RightHand  -0.543188 0.175635 -11.3905
LeftUpLeg  -4.26977 6.70526 2.70356
LeftLeg  8.46364 7.17741 -3.32873
LeftFoot  0.0806987 -0.106397 1.05867
LeftToes  1.61887e-010 9.40759e-012 5.52375e-011
150
root  -74.6594 41.2859 -6.17973 -38.5694 -88.7577 34.3502
RightUpLeg  -5.80528 -14.0585 -7.93394
RightLeg  23.5105 1.39942 0.456445
RightFoot  -1.74629 -0.6369 7.41034
RightToes  -1.74624e-010 0 -3.6325e-017
Spine  4.60826 0.039486 1.7854
Spine1  7.24106 0.399026 -1.90267
HEad  -15.8258 1.21201 -2.73699
LeftShoulder1  8.7737 -12.1972 -48.7789
LeftArm  -13.1688 20.1251 -28.6613
LeftForeArm  24.9689 -22.9901 -3.65118
LeftHand  -0.244104 0.0205437 5.32207
RightShoulder  6.31138 9.68119 41.6285
RightArm  1.32846 -16.76 33.0097
RightForeArm  8.18601 15.3068 6.38188
RightHand  -0.558605 0.339813 -11.3869
LeftUpLeg  -4.46159 6.65611 2.55431
LeftLeg  9.13513 7.76547 -3.47222
LeftFoot  -0.543829 -0.133099 1.45802
LeftToes  1.61887e-010 9.40759e-012 5.52375e-011
151
root  -74.8589 41.259 -5.94389 -65.5894 -89.3132 61.5183
RightUpLeg  -8.10251 -12.5432 -8.28858
RightLeg  27.0611 2.02703 0.900014
RightFoot  -0.253953 -0.917181 9.4526
RightToes  -1.74624e-010 0 -3.6325e-017
Spine  5.35979 -0.0162261 1.51208
Spine1  6.47829 0.299651 -1.99488
HEad  -16.5568 1.82203 -2.94405
LeftShoulder1  8.44966 -11.8959 -47.8869
LeftArm  -16.0792 19.7806 -28.5298
LeftForeArm  26.5396 -25.2975 -4.00817
LeftHand  -0.244104 0.0205437 5.32207
RightShoulder  6.21642 9.5358 41.4466
RightArm  -1.49995 -17.8472 32.4721
RightForeArm  7.33559 15.0909 6.2201
RightHand  -0.606685 0.755161 -11.5579
LeftUpLeg  -4.44665 6.6886 2.52149
LeftLeg  9.64655 8.44989 -3.6126
LeftFoot  -1.17168 -0.167922 2.02377
LeftToes  1.61887e-010 9.40759e-012 5.52375e-011
